<svg width="163" height="52" viewBox="0 0 163 52" fill="none" xmlns="http://www.w3.org/2000/svg">
<path d="M36.3516 36.8125L34.8203 39L31.8398 38.9453L33.5625 36.4844C30.1901 35.901 27.1914 34.6706 24.5664 32.793C19.0247 37.2773 13.7565 39.5195 8.76172 39.5195C6.61068 39.5195 4.64193 38.9453 2.85547 37.7969C1.08724 36.6484 0.203125 35.2083 0.203125 33.4766C0.203125 32.5286 0.467448 31.7904 0.996094 31.2617C1.54297 30.7148 2.14453 30.4414 2.80078 30.4414C3.40234 30.4414 3.91276 30.651 4.33203 31.0703C4.7513 31.4714 4.96094 31.9544 4.96094 32.5195C4.96094 33.0117 4.77865 33.431 4.41406 33.7773C4.06771 34.1237 3.63932 34.2969 3.12891 34.2969C1.98047 34.2969 1.36979 33.5495 1.29688 32.0547L1.1875 32.0273C0.75 32.556 0.53125 33.1393 0.53125 33.7773C0.53125 35.2539 1.39714 36.5391 3.12891 37.6328C4.86068 38.7266 6.85677 39.2734 9.11719 39.2734C11.8151 39.2734 14.6497 38.526 17.6211 37.0312C20.5924 35.5365 22.8346 34.0508 24.3477 32.5742C20.2826 28.7461 18.25 24.6354 18.25 20.2422C18.25 17.5443 18.9609 15.2656 20.3828 13.4062C21.8229 11.5286 23.6094 10.5898 25.7422 10.5898C28.1667 10.5898 30.3724 11.5651 32.3594 13.5156C34.3464 15.4479 35.8594 18 36.8984 21.1719C44.4635 14.1719 49.8685 9.57812 53.1133 7.39062C56.3581 5.20312 59.2839 3.57161 61.8906 2.49609C64.5156 1.40234 66.9857 0.809896 69.3008 0.71875L61.6172 7.69141C57.9531 11.0091 53.3594 15.9128 47.8359 22.4023C42.3125 28.8737 38.5573 33.5768 36.5703 36.5117C39.6693 36.3477 42.2487 35.418 44.3086 33.7227L44.5 33.9141C42.4401 35.6094 39.724 36.5755 36.3516 36.8125ZM36.9531 21.5273C37.2266 22.5664 37.3633 23.6419 37.3633 24.7539C37.3633 27.4883 36.5521 30.6875 34.9297 34.3516L35.1484 34.4609C39.9792 27.8073 45.7487 21.1172 52.457 14.3906C59.1654 7.66406 64.3698 3.29818 68.0703 1.29297L68.0156 1.10156C64.4792 1.42969 60.3229 3.07943 55.5469 6.05078C50.7708 9.02214 44.5729 14.181 36.9531 21.5273ZM24.5664 32.4102C26.0065 31.3164 28.112 29.5026 30.8828 26.9688C33.6536 24.4167 35.5859 22.5482 36.6797 21.3633C35.9323 18.7565 34.6289 16.5052 32.7695 14.6094C30.9284 12.7135 28.9049 11.7656 26.6992 11.7656C24.4023 11.7656 22.4792 12.6133 20.9297 14.3086C19.3984 16.0039 18.6328 18.1367 18.6328 20.707C18.6328 24.9362 20.6107 28.8372 24.5664 32.4102ZM33.7539 36.2383C35.9961 31.9727 37.1172 28.1536 37.1172 24.7812C37.1172 23.7969 36.9987 22.7578 36.7617 21.6641C32.2044 26.1667 28.2122 29.8216 24.7852 32.6289C25.7331 33.4128 27.0911 34.1693 28.8594 34.8984C30.6276 35.6094 32.2591 36.056 33.7539 36.2383ZM73.8398 13.543L76.082 13.5156L56.6953 32.8477C53.5964 35.9466 52.0469 37.7786 52.0469 38.3438C52.0469 38.5807 52.1471 38.7812 52.3477 38.9453C52.5664 39.1094 52.8034 39.1914 53.0586 39.1914C53.5872 39.1914 54.3984 38.8268 55.4922 38.0977C56.6042 37.3685 58.4271 35.9102 60.9609 33.7227L61.1523 33.9141L58.8828 35.8008C57.0417 37.332 55.7292 38.3255 54.9453 38.7812C54.1615 39.237 53.5326 39.4648 53.0586 39.4648C52.6393 39.4648 52.2747 39.3372 51.9648 39.082C51.6732 38.8268 51.5273 38.4805 51.5273 38.043C51.5273 37.1497 52.0469 36.0195 53.0859 34.6523L52.9766 34.543C52.2109 35.2721 51.099 36.1745 49.6406 37.25C48.2005 38.3073 47.1615 38.9453 46.5234 39.1641C45.9036 39.3828 45.3477 39.4922 44.8555 39.4922C44.2721 39.4922 43.8164 39.2917 43.4883 38.8906C43.1784 38.4896 43.0234 37.9792 43.0234 37.3594C43.0234 36.0286 43.625 34.6979 44.8281 33.3672C46.0495 32.0182 47.7083 30.8789 49.8047 29.9492C51.901 29.0013 53.5234 28.5273 54.6719 28.5273C55.1641 28.5273 55.5742 28.6641 55.9023 28.9375C56.2305 29.2109 56.3945 29.5664 56.3945 30.0039C56.3945 30.2591 56.2852 30.651 56.0664 31.1797L73.8398 13.543ZM56.0664 29.9766C56.0664 29.2292 55.638 28.8555 54.7812 28.8555C53.3229 28.8555 51.1081 30.1497 48.1367 32.7383C45.1836 35.3268 43.707 37.1497 43.707 38.207C43.707 38.8451 44.099 39.1641 44.8828 39.1641C45.6849 39.1641 46.4961 38.9271 47.3164 38.4531C48.1549 37.9609 49.431 37.0586 51.1445 35.7461C52.8763 34.4154 54.125 33.2943 54.8906 32.3828C55.6745 31.4531 56.0664 30.651 56.0664 29.9766ZM90.5195 13.543L92.7617 13.5156L73.375 32.8477C70.276 35.9466 68.7266 37.7786 68.7266 38.3438C68.7266 38.5807 68.8268 38.7812 69.0273 38.9453C69.2461 39.1094 69.4831 39.1914 69.7383 39.1914C70.2669 39.1914 71.0781 38.8268 72.1719 38.0977C73.2839 37.3685 75.1068 35.9102 77.6406 33.7227L77.832 33.9141L75.5625 35.8008C73.7214 37.332 72.4089 38.3255 71.625 38.7812C70.8411 39.237 70.2122 39.4648 69.7383 39.4648C69.319 39.4648 68.9544 39.3372 68.6445 39.082C68.3529 38.8268 68.207 38.4805 68.207 38.043C68.207 37.1497 68.7266 36.0195 69.7656 34.6523L69.6562 34.543C68.8906 35.2721 67.7786 36.1745 66.3203 37.25C64.8802 38.3073 63.8411 38.9453 63.2031 39.1641C62.5833 39.3828 62.0273 39.4922 61.5352 39.4922C60.9518 39.4922 60.4961 39.2917 60.168 38.8906C59.8581 38.4896 59.7031 37.9792 59.7031 37.3594C59.7031 36.0286 60.3047 34.6979 61.5078 33.3672C62.7292 32.0182 64.388 30.8789 66.4844 29.9492C68.5807 29.0013 70.2031 28.5273 71.3516 28.5273C71.8438 28.5273 72.2539 28.6641 72.582 28.9375C72.9102 29.2109 73.0742 29.5664 73.0742 30.0039C73.0742 30.2591 72.9648 30.651 72.7461 31.1797L90.5195 13.543ZM72.7461 29.9766C72.7461 29.2292 72.3177 28.8555 71.4609 28.8555C70.0026 28.8555 67.7878 30.1497 64.8164 32.7383C61.8633 35.3268 60.3867 37.1497 60.3867 38.207C60.3867 38.8451 60.7786 39.1641 61.5625 39.1641C62.3646 39.1641 63.1758 38.9271 63.9961 38.4531C64.8346 37.9609 66.1107 37.0586 67.8242 35.7461C69.556 34.4154 70.8047 33.2943 71.5703 32.3828C72.3542 31.4531 72.7461 30.651 72.7461 29.9766ZM87.2383 33.9141L87.0469 33.7227C89.7266 31.4258 92.7344 29.0378 96.0703 26.5586L99.7891 23.7969C100.208 23.487 101.421 22.4844 103.426 20.7891L105.148 20.707L93.5547 32.8477L91.9961 34.3516L92.1328 34.5703C97.638 29.9219 101.32 27.5977 103.18 27.5977C103.654 27.5977 104.064 27.7891 104.41 28.1719C104.757 28.5547 104.93 29.0378 104.93 29.6211C104.93 30.1133 104.775 30.6875 104.465 31.3438C104.155 31.9818 103.18 32.9479 101.539 34.2422C98.987 36.1927 97.7109 37.4779 97.7109 38.0977C97.7109 38.7357 98.1211 39.0547 98.9414 39.0547C100.199 39.0547 102.906 37.2773 107.062 33.7227L107.254 33.9141C102.915 37.5599 100.117 39.3828 98.8594 39.3828C98.4036 39.3828 98.0026 39.2279 97.6562 38.918C97.3099 38.6081 97.1367 38.125 97.1367 37.4688C97.1367 36.8672 97.2643 36.3203 97.5195 35.8281C97.7747 35.3177 98.1029 34.862 98.5039 34.4609C98.9049 34.0599 99.8073 33.2943 101.211 32.1641L102.77 30.9062C103.754 30.1042 104.246 29.4206 104.246 28.8555C104.246 28.582 104.128 28.3633 103.891 28.1992C103.654 28.0169 103.398 27.9258 103.125 27.9258C101.831 27.9258 99.2604 29.3659 95.4141 32.2461C91.5677 35.1081 86.9648 39.2552 81.6055 44.6875L74.5781 51.8516H71.8984L100.418 23.9336L100.309 23.7695C95.2956 27.3607 90.9388 30.7422 87.2383 33.9141ZM107.227 33.9141L107.035 33.7227L109.66 31.5625C111.082 30.3776 112.768 29.1107 114.719 27.7617C116.688 26.4128 117.69 25.7201 117.727 25.6836L125.273 17.9727C126.75 16.4596 128.19 15.0924 129.594 13.8711C131.016 12.6497 132.41 11.6198 133.777 10.7812C135.145 9.92448 136.193 9.3776 136.922 9.14062C137.669 8.90365 138.253 8.78516 138.672 8.78516C139.784 8.78516 140.34 9.3138 140.34 10.3711C140.34 11.7747 138.772 13.7526 135.637 16.3047C132.501 18.8568 128.445 21.2721 123.469 23.5508C121.372 24.5169 120.188 25.1458 119.914 25.4375L116.988 28.6914C115.001 30.8971 112.987 33.2487 110.945 35.7461L111.191 35.8281C113.197 33.9141 115.32 32.1732 117.562 30.6055C119.805 29.0195 121.464 28.2266 122.539 28.2266C123.688 28.2266 124.262 28.8099 124.262 29.9766C124.262 30.7057 124.079 31.4167 123.715 32.1094C123.368 32.7839 122.585 33.6406 121.363 34.6797L119.695 36.1016C118.492 37.1224 117.891 37.8698 117.891 38.3438C117.891 38.7995 118.164 39.0273 118.711 39.0273C120.352 39.0273 123.168 37.2591 127.16 33.7227L127.324 33.9141L125.191 35.7188C124.098 36.6484 122.922 37.4779 121.664 38.207C120.406 38.9362 119.431 39.3008 118.738 39.3008C118.264 39.3008 117.882 39.1185 117.59 38.7539C117.316 38.3711 117.18 37.888 117.18 37.3047C117.18 36.6484 117.389 36.0469 117.809 35.5C118.228 34.9349 119.139 34.0508 120.543 32.8477C121.965 31.6445 122.831 30.8516 123.141 30.4688C123.469 30.0859 123.633 29.7396 123.633 29.4297C123.633 29.1562 123.514 28.9375 123.277 28.7734C123.059 28.5911 122.812 28.5 122.539 28.5C122.156 28.5 121.509 28.7005 120.598 29.1016C119.686 29.5026 118.41 30.2956 116.77 31.4805C115.129 32.6471 113.507 34.0052 111.902 35.5547C110.298 37.0859 109.049 38.2344 108.156 39L105.449 39.0273L116.742 26.9141L116.633 26.7773C114.974 27.7253 111.839 30.1042 107.227 33.9141ZM139.902 10.2891C139.902 9.52344 139.51 9.14062 138.727 9.14062C137.615 9.14062 136.22 9.71484 134.543 10.8633C132.866 12.0117 130.214 14.4818 126.586 18.2734C122.958 22.0469 121.145 24.0339 121.145 24.2344C121.145 24.2708 122.348 23.7331 124.754 22.6211C126.176 21.9466 127.607 21.1992 129.047 20.3789C131.253 19.1029 133.103 17.8906 134.598 16.7422C136.092 15.5755 137.323 14.418 138.289 13.2695C139.036 12.3945 139.52 11.6562 139.738 11.0547C139.848 10.7812 139.902 10.526 139.902 10.2891ZM139.273 33.7227L139.465 33.9141C138.79 34.5521 138.098 34.8711 137.387 34.8711C136.803 34.8711 136.311 34.6615 135.91 34.2422C134.561 35.6641 133.121 36.8581 131.59 37.8242C130.059 38.7904 128.783 39.2734 127.762 39.2734C127.233 39.2734 126.786 39.082 126.422 38.6992C126.057 38.3164 125.875 37.7878 125.875 37.1133C125.875 35.5638 126.568 34.0781 127.953 32.6562C129.339 31.2161 130.924 30.1042 132.711 29.3203C134.516 28.5182 135.947 28.1172 137.004 28.1172C138.043 28.1172 138.562 28.6094 138.562 29.5938C138.562 30.6146 137.742 32.082 136.102 33.9961C136.43 34.3971 136.867 34.5977 137.414 34.5977C138.034 34.5977 138.654 34.306 139.273 33.7227ZM138.316 29.5117C138.316 29.1654 138.18 28.8828 137.906 28.6641C137.651 28.4453 137.359 28.3359 137.031 28.3359C135.646 28.3359 133.549 29.7214 130.742 32.4922C127.953 35.263 126.559 37.0951 126.559 37.9883C126.559 38.2435 126.686 38.4805 126.941 38.6992C127.197 38.8997 127.488 39 127.816 39C128.582 39 129.676 38.6081 131.098 37.8242C132.538 37.0221 133.796 36.056 134.871 34.9258C135.965 33.7773 136.812 32.7565 137.414 31.8633C138.016 30.9518 138.316 30.168 138.316 29.5117ZM139.492 33.9141L139.301 33.7227L146.82 27.5703L150.02 25.0547H147.531L147.641 24.8086H150.402L155.023 19.9688L157.348 19.9141L152.891 24.8086H156.828L156.746 25.0547H152.617L143.184 35.1172C142.053 36.3203 141.37 37.0768 141.133 37.3867C140.914 37.6966 140.805 37.9883 140.805 38.2617C140.805 38.5352 140.914 38.7721 141.133 38.9727C141.37 39.1549 141.616 39.2461 141.871 39.2461C143.366 39.2461 146.228 37.4049 150.457 33.7227L150.648 33.9141C146.255 37.6875 143.311 39.5742 141.816 39.5742C141.342 39.5742 140.932 39.3828 140.586 39C140.258 38.599 140.094 38.1341 140.094 37.6055C140.094 36.2383 141.005 34.5885 142.828 32.6562L148.406 26.8594L148.297 26.7773L139.492 33.9141ZM162.57 33.7227L162.762 33.9141C162.087 34.5521 161.395 34.8711 160.684 34.8711C160.1 34.8711 159.608 34.6615 159.207 34.2422C157.858 35.6641 156.418 36.8581 154.887 37.8242C153.355 38.7904 152.079 39.2734 151.059 39.2734C150.53 39.2734 150.083 39.082 149.719 38.6992C149.354 38.3164 149.172 37.7878 149.172 37.1133C149.172 35.5638 149.865 34.0781 151.25 32.6562C152.635 31.2161 154.221 30.1042 156.008 29.3203C157.812 28.5182 159.243 28.1172 160.301 28.1172C161.34 28.1172 161.859 28.6094 161.859 29.5938C161.859 30.6146 161.039 32.082 159.398 33.9961C159.727 34.3971 160.164 34.5977 160.711 34.5977C161.331 34.5977 161.951 34.306 162.57 33.7227ZM161.613 29.5117C161.613 29.1654 161.477 28.8828 161.203 28.6641C160.948 28.4453 160.656 28.3359 160.328 28.3359C158.943 28.3359 156.846 29.7214 154.039 32.4922C151.25 35.263 149.855 37.0951 149.855 37.9883C149.855 38.2435 149.983 38.4805 150.238 38.6992C150.493 38.8997 150.785 39 151.113 39C151.879 39 152.973 38.6081 154.395 37.8242C155.835 37.0221 157.092 36.056 158.168 34.9258C159.262 33.7773 160.109 32.7565 160.711 31.8633C161.312 30.9518 161.613 30.168 161.613 29.5117Z" fill="black"/>
</svg>
