<svg width="50" height="50" viewBox="0 0 50 50" fill="none" xmlns="http://www.w3.org/2000/svg">
<path d="M25 0C11.1764 0 0 11.1764 0 25C0 38.8236 11.1764 50 25 50C38.8236 50 50 38.8236 50 25C50 11.1764 38.8236 0 25 0ZM25 47.0589C12.9411 47.0589 2.94115 37.0589 2.94115 25C2.94115 12.9411 12.9411 2.94115 25 2.94115C37.0589 2.94115 47.0589 12.9411 47.0589 25C47.0589 37.0589 37.0589 47.0589 25 47.0589Z" fill="black"/>
<path d="M27.647 20.2941C26.1764 18.8234 23.5293 18.8234 22.0589 20.2941L16.4707 25.8823C15.8825 26.4705 15.8825 27.3529 16.4707 27.9411C17.0589 28.5293 17.9413 28.5293 18.5295 27.9411L24.1177 22.3529C24.7059 22.0588 25.2941 22.0588 25.5884 22.3529L31.1766 27.9411C31.4707 28.2352 32.0589 28.2352 32.3529 28.2352C32.647 28.2352 33.2352 27.9411 33.2352 27.9411C33.8234 27.3529 33.8234 26.4705 33.2352 25.8823L27.647 20.2941V20.2941Z" fill="black"/>
</svg>
