<svg width="40" height="39" viewBox="0 0 40 39" fill="none" xmlns="http://www.w3.org/2000/svg">
<g clip-path="url(#clip0_4_436)">
<path d="M20 38.5938C16.304 38.5938 12.6909 37.4739 9.61779 35.3759C6.54465 33.2778 4.14942 30.2958 2.73501 26.8069C1.3206 23.3179 0.950522 19.4788 1.67158 15.775C2.39264 12.0712 4.17246 8.669 6.78595 5.99869C9.39944 3.32838 12.7292 1.50988 16.3543 0.77314C19.9793 0.0364031 23.7367 0.414523 27.1514 1.85968C30.5661 3.30484 33.4847 5.75214 35.5381 8.89209C37.5915 12.032 38.6875 15.7236 38.6875 19.5C38.6875 24.564 36.7187 29.4206 33.2141 33.0013C29.7095 36.5821 24.9562 38.5938 20 38.5938ZM20 3.34376C16.8726 3.34376 13.8154 4.29131 11.2151 6.06658C8.6147 7.84185 6.58797 10.3651 5.39116 13.3173C4.19435 16.2694 3.88121 19.5179 4.49134 22.6519C5.10147 25.7859 6.60746 28.6647 8.81888 30.9242C11.0303 33.1837 13.8478 34.7224 16.9151 35.3458C19.9825 35.9692 23.1618 35.6493 26.0512 34.4264C28.9405 33.2036 31.4101 31.1328 33.1476 28.4759C34.8851 25.8191 35.8125 22.6954 35.8125 19.5C35.8125 15.2151 34.1466 11.1057 31.1811 8.07581C28.2157 5.04593 24.1937 3.34376 20 3.34376Z" fill="black"/>
<path d="M13.9054 27.1963C13.7163 27.1974 13.5287 27.1603 13.3536 27.0872C13.1784 27.0141 13.0191 26.9064 12.8848 26.7703C12.6171 26.4951 12.4668 26.1229 12.4668 25.7348C12.4668 25.3468 12.6171 24.9746 12.8848 24.6994L25.0892 12.2297C25.2223 12.0889 25.3812 11.9763 25.5569 11.8982C25.7326 11.8202 25.9216 11.7782 26.1131 11.7748C26.3047 11.7714 26.495 11.8066 26.6733 11.8783C26.8515 11.9501 27.0142 12.057 27.152 12.193C27.2898 12.329 27.4 12.4913 27.4764 12.6708C27.5528 12.8504 27.5939 13.0435 27.5972 13.2392C27.6005 13.4349 27.5661 13.6294 27.4959 13.8115C27.4257 13.9936 27.321 14.1598 27.1879 14.3006L14.9117 26.8438C14.6327 27.0884 14.2726 27.2145 13.9054 27.1963Z" fill="black"/>
<path d="M26.0953 27.1963C25.7182 27.1946 25.3568 27.0417 25.0891 26.7703L12.8847 14.3006C12.6492 14.0197 12.5262 13.6582 12.5401 13.2886C12.5541 12.9189 12.7041 12.5683 12.9601 12.3067C13.2161 12.0451 13.5593 11.8919 13.9211 11.8776C14.2829 11.8633 14.6366 11.9891 14.9116 12.2297L27.1878 24.6994C27.3315 24.8368 27.446 25.0028 27.5242 25.1872C27.6025 25.3717 27.6429 25.5706 27.6429 25.7716C27.6429 25.9726 27.6025 26.1715 27.5242 26.3559C27.446 26.5403 27.3315 26.7064 27.1878 26.8438C27.0391 26.9759 26.8654 27.0754 26.6775 27.136C26.4895 27.1967 26.2914 27.2172 26.0953 27.1963Z" fill="black"/>
</g>
<defs>
<clipPath id="clip0_4_436">
<rect width="40" height="39" fill="white"/>
</clipPath>
</defs>
</svg>
