<svg width="393" height="52" viewBox="0 0 393 52" fill="none" xmlns="http://www.w3.org/2000/svg">
<path d="M40.9731 32.8169L41.1611 33.0049C37.9027 35.9411 33.7401 37.9821 28.6733 39.1279C26.3817 41.8672 24.7435 43.7023 23.7588 44.6333C22.7741 45.5643 21.3328 46.5848 19.4351 47.6948C17.5373 48.8049 15.6932 49.6374 13.9028 50.1924C12.1304 50.7653 10.3848 51.0518 8.66602 51.0518C7.28743 51.0518 6.28483 50.8459 5.6582 50.4341C5.04948 50.0223 4.74512 49.5031 4.74512 48.8765C4.74512 47.5516 5.70296 46.361 7.61865 45.3047C9.55225 44.2484 11.7992 43.3532 14.3594 42.6191L25.397 39.8799C27.5812 37.1227 29.7028 34.7952 31.7617 32.8975L38.1533 26.8013C33.4626 30.0776 29.4521 32.2619 26.1221 33.354C22.792 34.4461 20.0527 34.9922 17.9043 34.9922C16.2572 34.9922 14.8517 34.464 13.688 33.4077C12.5422 32.3335 11.9692 30.9281 11.9692 29.1914C11.9692 27.3652 12.4795 25.5391 13.5 23.7129C12.6227 23.7666 11.8618 23.7935 11.2173 23.7935C7.40381 23.7935 4.59294 23.0057 2.78467 21.4302C0.9764 19.8547 0.0722656 18.0195 0.0722656 15.9248C0.0722656 12.2008 2.02376 8.85286 5.92676 5.88086C9.84766 2.89095 16.3198 1.13639 25.3433 0.617188L25.3701 0.858887C23.6335 0.858887 21.1896 1.11849 18.0386 1.6377C14.8875 2.1569 12.0319 3.17741 9.47168 4.69922C6.92936 6.20312 4.85254 8.07406 3.24121 10.312C1.64779 12.55 0.851074 14.7163 0.851074 16.811C0.851074 18.6014 1.71045 20.1859 3.4292 21.5645C5.14795 22.9251 7.49333 23.6055 10.4653 23.6055C11.0562 23.6055 12.1393 23.5428 13.7148 23.4175C15.7917 19.783 19.0591 16.2381 23.5171 12.7827C27.993 9.30941 32.8807 6.5612 38.1802 4.53809C43.4976 2.49707 47.5975 1.47656 50.48 1.47656C51.5363 1.47656 52.4315 1.70036 53.1655 2.14795C53.8996 2.57764 54.2666 3.15951 54.2666 3.89355C54.2666 7.16992 49.6743 10.9834 40.4897 15.334C31.3231 19.6846 23.2127 22.397 16.1587 23.4712C14.1356 26.3895 13.124 28.8602 13.124 30.8833C13.124 32.047 13.6074 32.987 14.5742 33.7031C15.5589 34.4193 16.7137 34.7773 18.0386 34.7773C20.6704 34.7773 23.9557 33.9985 27.8945 32.4409C31.8333 30.8833 36.3451 28.0277 41.4297 23.874L41.6982 24.25C36.1481 28.9229 31.8691 33.7747 28.8613 38.8057C30.4906 38.4834 32.4868 37.7941 34.8501 36.7378C37.2313 35.6815 39.2723 34.3745 40.9731 32.8169ZM16.3467 23.2563C21.9863 22.2896 28.0646 20.4455 34.5815 17.7241C41.0985 15.0028 45.9414 12.4157 49.1104 9.96289C52.2972 7.49219 53.8906 5.42432 53.8906 3.75928C53.8906 3.18636 53.5594 2.71191 52.897 2.33594C52.2524 1.95996 51.402 1.77197 50.3457 1.77197C47.3379 1.77197 43.6497 2.78353 39.2812 4.80664C34.9307 6.82975 30.4727 9.70329 25.9072 13.4272C21.3418 17.1512 18.1549 20.4276 16.3467 23.2563ZM25.0747 40.2827C18.7547 41.6613 13.8491 43.0757 10.3579 44.5259C6.8667 45.994 5.12109 47.4889 5.12109 49.0107C5.12109 49.5479 5.40755 49.9775 5.98047 50.2998C6.57129 50.6221 7.41276 50.7832 8.50488 50.7832C11.0293 50.7832 13.5448 50.1029 16.0513 48.7422C18.5578 47.3815 21.5656 44.5617 25.0747 40.2827ZM54.75 27.5532H57.1401L49.5938 35.4219C48.8597 36.1917 48.4927 36.8094 48.4927 37.2749C48.4927 37.5793 48.5911 37.812 48.7881 37.9731C49.0029 38.1164 49.2178 38.188 49.4326 38.188C49.8623 38.188 50.5516 37.8747 51.5005 37.248C52.4494 36.6035 54.2756 35.1265 56.979 32.8169L57.167 33.0049C54.2845 35.4398 52.3688 36.9526 51.4199 37.5435C50.4889 38.1164 49.7817 38.4028 49.2983 38.4028C48.8687 38.4028 48.5285 38.2507 48.2778 37.9463C48.0451 37.624 47.9287 37.248 47.9287 36.8184C47.9287 36.0664 48.2957 35.1265 49.0298 33.9985L48.9224 33.918C45.2879 36.9079 42.8083 38.4028 41.4834 38.4028C40.9284 38.4028 40.4897 38.179 40.1675 37.7314C39.8631 37.266 39.7109 36.6662 39.7109 35.9321C39.7109 33.8911 41.1432 31.9933 44.0078 30.2388C46.8903 28.4663 49.3162 27.5801 51.2856 27.5801C52.3062 27.5801 52.8164 28.0098 52.8164 28.8691C52.8164 29.0661 52.7985 29.3167 52.7627 29.6211L54.75 27.5532ZM52.4673 28.8154C52.4673 28.1709 52.0555 27.8486 51.2319 27.8486C49.7459 27.8486 47.5617 29.1466 44.6792 31.7427C41.8146 34.3208 40.3823 36.138 40.3823 37.1943C40.3823 37.4271 40.4808 37.6509 40.6777 37.8657C40.8747 38.0627 41.1522 38.1611 41.5103 38.1611C42.0295 38.1611 42.8799 37.8299 44.0615 37.1675C45.2611 36.505 46.7292 35.4308 48.4658 33.9448C50.2025 32.4588 51.3035 31.3846 51.769 30.7222C52.2345 30.0418 52.4673 29.4062 52.4673 28.8154ZM57.167 33.0049L56.979 32.8169C60.9178 29.451 63.2184 27.5264 63.8809 27.043C64.5612 26.5596 65.0894 26.2284 65.4653 26.0493C65.8592 25.8703 66.1904 25.6465 66.459 25.3779C69.5026 22.1195 72.4209 19.2191 75.2139 16.6768C78.0068 14.1344 80.388 12.165 82.3574 10.7686C84.3447 9.35417 86.0008 8.64697 87.3257 8.64697C87.8091 8.64697 88.2119 8.79915 88.5342 9.10352C88.8743 9.38997 89.0444 9.71224 89.0444 10.0703C89.0444 11.1087 87.8986 12.6574 85.6069 14.7163C83.3153 16.7573 80.4775 18.7983 77.0938 20.8394C73.71 22.8804 71.1139 24.1605 69.3057 24.6797C68.8939 25.1631 68.133 26.0046 67.0229 27.2041L64.8745 29.5674L62.1621 32.79C60.2822 35.028 59.2796 36.4513 59.1543 37.0601V37.3018C59.1543 37.8926 59.4855 38.188 60.1479 38.188C61.6877 38.188 64.4717 36.3976 68.5 32.8169L68.688 33.0049L67.0498 34.4014C63.7913 37.1764 61.4281 38.564 59.96 38.564C59.5124 38.564 59.1185 38.3849 58.7783 38.0269C58.4561 37.6867 58.2949 37.2749 58.2949 36.7915C58.2949 35.4666 59.3244 33.5509 61.3833 31.0444C63.4422 28.5379 64.7671 27.0877 65.3579 26.6938L65.3311 26.5327C64.6865 26.8192 63.7376 27.5085 62.4844 28.6006L57.167 33.0049ZM69.6816 24.2769C71.1139 23.8114 73.5399 22.576 76.9595 20.5708C80.397 18.5477 83.2078 16.5335 85.3921 14.5283C87.5763 12.5052 88.6685 11.0192 88.6685 10.0703C88.6685 9.78385 88.5342 9.5332 88.2656 9.31836C87.9971 9.08561 87.6569 8.96924 87.2451 8.96924C86.1709 8.96924 84.8639 9.48844 83.3242 10.5269C81.8024 11.5474 79.457 13.6958 76.2881 16.9722C73.137 20.2485 70.9349 22.6834 69.6816 24.2769ZM68.7148 33.0049L68.5269 32.8169C72.4657 29.451 74.7663 27.5264 75.4287 27.043C76.109 26.5596 76.6372 26.2284 77.0132 26.0493C77.4071 25.8703 77.7383 25.6465 78.0068 25.3779C81.0505 22.1195 83.9688 19.2191 86.7617 16.6768C89.5547 14.1344 91.9359 12.165 93.9053 10.7686C95.8926 9.35417 97.5487 8.64697 98.8735 8.64697C99.3569 8.64697 99.7598 8.79915 100.082 9.10352C100.422 9.38997 100.592 9.71224 100.592 10.0703C100.592 11.1087 99.4465 12.6574 97.1548 14.7163C94.8631 16.7573 92.0254 18.7983 88.6416 20.8394C85.2578 22.8804 82.6618 24.1605 80.8535 24.6797C80.4417 25.1631 79.6808 26.0046 78.5708 27.2041L76.4224 29.5674L73.71 32.79C71.8301 35.028 70.8275 36.4513 70.7021 37.0601V37.3018C70.7021 37.8926 71.0334 38.188 71.6958 38.188C73.2355 38.188 76.0195 36.3976 80.0479 32.8169L80.2358 33.0049L78.5977 34.4014C75.3392 37.1764 72.9759 38.564 71.5078 38.564C71.0602 38.564 70.6663 38.3849 70.3262 38.0269C70.0039 37.6867 69.8428 37.2749 69.8428 36.7915C69.8428 35.4666 70.8722 33.5509 72.9312 31.0444C74.9901 28.5379 76.3149 27.0877 76.9058 26.6938L76.8789 26.5327C76.2344 26.8192 75.2855 27.5085 74.0322 28.6006L68.7148 33.0049ZM81.2295 24.2769C82.6618 23.8114 85.0877 22.576 88.5073 20.5708C91.9448 18.5477 94.7557 16.5335 96.9399 14.5283C99.1242 12.5052 100.216 11.0192 100.216 10.0703C100.216 9.78385 100.082 9.5332 99.8135 9.31836C99.5449 9.08561 99.2048 8.96924 98.793 8.96924C97.7188 8.96924 96.4118 9.48844 94.8721 10.5269C93.3503 11.5474 91.0049 13.6958 87.8359 16.9722C84.6849 20.2485 82.4827 22.6834 81.2295 24.2769ZM90.9512 32.8169L91.1392 33.0049C88.9907 34.9027 87.0303 36.2812 85.2578 37.1406C83.4854 37.9821 82.071 38.4028 81.0146 38.4028C79.5465 38.4028 78.8125 37.6509 78.8125 36.147C78.8125 34.1239 80.1911 32.2171 82.9482 30.4268C85.7233 28.6364 87.8896 27.7412 89.4473 27.7412C89.7337 27.7412 89.9754 27.8218 90.1724 27.9829C90.3872 28.144 90.4946 28.341 90.4946 28.5737C90.4946 29.451 89.6263 30.373 87.8896 31.3398C86.153 32.3066 84.2284 32.9064 82.1157 33.1392C80.2896 34.9653 79.3765 36.2186 79.3765 36.8989C79.3765 37.2212 79.5376 37.5256 79.8599 37.812C80.1821 38.0806 80.5581 38.2148 80.9878 38.2148C81.9188 38.2148 83.2347 37.812 84.9355 37.0063C86.6543 36.1828 88.6595 34.7863 90.9512 32.8169ZM82.5186 32.8169C83.0557 32.8169 84.0046 32.5841 85.3652 32.1187C86.7259 31.6532 87.8538 31.0534 88.749 30.3193C89.6621 29.5853 90.1187 28.9766 90.1187 28.4932C90.1187 28.153 89.9217 27.9829 89.5278 27.9829C89.0623 27.9829 88.5431 28.1261 87.9702 28.4126C87.4152 28.6991 86.5648 29.2899 85.4189 30.1851C84.2731 31.0623 83.3063 31.9396 82.5186 32.8169ZM91.1123 33.0049L90.9243 32.8169L95.0063 29.46C95.6509 28.9408 96.1074 28.5379 96.376 28.2515C95.8031 27.9113 95.5166 27.4458 95.5166 26.855C95.5166 26.479 95.6419 26.1478 95.8926 25.8613C96.1611 25.5749 96.4565 25.4316 96.7788 25.4316C97.0116 25.4316 97.2174 25.5301 97.3965 25.7271C97.5934 25.924 97.6919 26.1657 97.6919 26.4521C97.6919 26.7386 97.5934 26.9893 97.3965 27.2041C97.1995 27.401 96.9578 27.4995 96.6714 27.4995C96.4744 27.4995 96.2686 27.4279 96.0537 27.2847C96.0358 27.3563 96.0269 27.401 96.0269 27.4189C96.0269 27.5801 96.1522 27.7412 96.4028 27.9023C96.6535 28.0635 97.0205 28.144 97.5039 28.144C98.2021 28.144 98.9541 27.965 99.7598 27.6069L101.183 29.1914C100.843 29.8538 100.136 30.6774 99.0615 31.6621C98.0052 32.6289 96.9489 33.6673 95.8926 34.7773C94.8363 35.8695 94.2365 36.5229 94.0933 36.7378C93.95 36.9526 93.8784 37.1585 93.8784 37.3555C93.8784 37.8568 94.1649 38.1074 94.7378 38.1074C95.4181 38.1074 96.4744 37.7135 97.9067 36.9258C99.339 36.1201 101.165 34.7505 103.385 32.8169L103.573 33.0049C99.4017 36.6035 96.4386 38.4028 94.6841 38.4028C94.1649 38.4028 93.7531 38.2417 93.4487 37.9194C93.1623 37.5793 93.019 37.1406 93.019 36.6035C93.019 35.9232 93.2339 35.2428 93.6636 34.5625C94.1112 33.8822 95.0601 32.8348 96.5103 31.4204C97.9604 30.006 98.9631 28.9497 99.5181 28.2515L99.4106 28.0635C98.6587 28.332 97.9604 28.4663 97.3159 28.4663C97.1369 28.4663 96.9489 28.4395 96.752 28.3857L91.1123 33.0049ZM103.573 33.0049L103.385 32.8169L105.91 30.6953C106.769 29.9613 107.79 29.2541 108.971 28.5737C110.171 27.8755 111.111 27.5264 111.791 27.5264C112.203 27.5264 112.534 27.6696 112.785 27.9561C113.035 28.2246 113.161 28.5469 113.161 28.9229C113.161 29.6748 112.892 30.391 112.355 31.0713C111.818 31.7516 110.296 33.1929 107.79 35.395C106.859 36.2365 106.393 36.8721 106.393 37.3018C106.393 37.7673 106.653 38 107.172 38C107.924 38 108.953 37.5882 110.26 36.7646C111.567 35.9232 113.886 34.0075 117.216 31.0176L119.794 28.708C119.973 28.5469 120.313 28.1619 120.814 27.5532H123.419L112.006 39.5576C115.748 38.5908 119.633 36.3439 123.661 32.8169L123.849 33.0049C119.391 36.8363 115.264 39.1727 111.469 40.0142L108.595 42.9951C106.948 44.7139 104.997 46.4237 102.741 48.1245C100.485 49.8254 98.5423 50.6758 96.9131 50.6758C95.8389 50.6758 95.3018 50.2998 95.3018 49.5479C95.3018 48.4736 96.4924 47.0861 98.8735 45.3853C101.255 43.7023 104.531 42.2074 108.703 40.9004L119.633 29.4868L119.499 29.3525C118.997 29.7822 118.317 30.391 117.458 31.1787L114.987 33.4614C114.378 34.0164 113.358 34.8221 111.925 35.8784C110.493 36.9168 109.428 37.5882 108.729 37.8926C108.049 38.179 107.458 38.3223 106.957 38.3223C106.635 38.3223 106.304 38.2059 105.963 37.9731C105.641 37.7404 105.48 37.3734 105.48 36.8721C105.48 35.4577 106.393 33.9806 108.219 32.4409C110.045 30.9012 111.173 29.8896 111.603 29.4062C112.033 28.9229 112.248 28.5469 112.248 28.2783C112.248 27.974 112.033 27.8218 111.603 27.8218C111.138 27.8218 110.368 28.1172 109.293 28.708C108.237 29.2988 106.993 30.1851 105.561 31.3667L103.573 33.0049ZM108.192 41.5449C105.167 42.2432 102.32 43.4875 99.6523 45.2778C96.9668 47.0861 95.624 48.5184 95.624 49.5747C95.624 50.1118 96.0537 50.3804 96.9131 50.3804C98.0947 50.3804 99.2674 49.9865 100.431 49.1987C101.595 48.4289 103.421 46.7101 105.91 44.0425L108.192 41.5449ZM144.716 32.8169L144.904 33.0049C144.241 33.6315 143.561 33.9448 142.863 33.9448C142.29 33.9448 141.806 33.7389 141.413 33.3271C140.088 34.7236 138.673 35.8963 137.169 36.8452C135.666 37.7941 134.412 38.2686 133.41 38.2686C132.89 38.2686 132.452 38.0806 132.094 37.7046C131.736 37.3286 131.557 36.8094 131.557 36.147C131.557 34.6252 132.237 33.166 133.598 31.7695C134.958 30.3551 136.516 29.263 138.271 28.4932C140.043 27.7054 141.448 27.3115 142.487 27.3115C143.507 27.3115 144.018 27.7949 144.018 28.7617C144.018 29.7643 143.212 31.2056 141.601 33.0854C141.923 33.4793 142.353 33.6763 142.89 33.6763C143.498 33.6763 144.107 33.3898 144.716 32.8169ZM143.776 28.6812C143.776 28.341 143.642 28.0635 143.373 27.8486C143.122 27.6338 142.836 27.5264 142.514 27.5264C141.153 27.5264 139.094 28.887 136.337 31.6084C133.598 34.3298 132.228 36.1291 132.228 37.0063C132.228 37.257 132.353 37.4897 132.604 37.7046C132.855 37.9015 133.141 38 133.463 38C134.215 38 135.29 37.6151 136.686 36.8452C138.1 36.0575 139.336 35.1086 140.392 33.9985C141.466 32.8706 142.299 31.868 142.89 30.9907C143.48 30.0955 143.776 29.3257 143.776 28.6812ZM144.931 33.0049L144.743 32.8169C145.692 31.9933 146.9 31.0802 148.368 30.0776C148.726 29.1466 149.129 28.3947 149.577 27.8218C150.042 27.2489 150.4 26.9624 150.651 26.9624C150.866 26.9624 150.973 27.0788 150.973 27.3115C150.973 27.5443 150.696 28.0724 150.141 28.896L154.948 25.8345C155.252 25.6375 155.807 25.1362 156.613 24.3306C160.158 20.7498 162.888 18.109 164.804 16.4082C166.737 14.6895 168.626 13.1497 170.47 11.7891C172.314 10.4105 173.648 9.54215 174.472 9.18408C175.295 8.80811 175.967 8.62012 176.486 8.62012C176.862 8.62012 177.184 8.73649 177.453 8.96924C177.739 9.18408 177.882 9.45264 177.882 9.7749C177.882 10.867 177.05 12.3083 175.385 14.0986C173.738 15.8711 171.079 17.8674 167.409 20.0874C163.738 22.3075 160.614 23.8382 158.036 24.6797L149.684 33.8374C150.293 34.3566 151.027 34.6162 151.886 34.6162C153.014 34.6162 154.267 34.0164 155.646 32.8169L155.834 33.0049C154.366 34.2939 153.041 34.9385 151.859 34.9385C150.928 34.9385 150.123 34.6699 149.442 34.1328L133.786 50.8638L131.154 50.8906L139.157 42.4849C141.431 40.0858 143.507 37.5256 145.387 34.8042C147.285 32.0828 148.234 30.6506 148.234 30.5073C147.41 31.0444 146.9 31.3846 146.703 31.5278C146.524 31.6532 146.372 31.7695 146.247 31.877L144.931 33.0049ZM177.506 9.74805C177.506 9.5332 177.399 9.34521 177.184 9.18408C176.969 9.02295 176.71 8.94238 176.405 8.94238C175.886 8.94238 175.125 9.18408 174.123 9.66748C173.138 10.1509 171.885 11.0192 170.363 12.2725C168.841 13.5257 166.487 15.8084 163.3 19.1206C160.113 22.4149 158.52 24.1247 158.52 24.25C158.52 24.3395 160.032 23.6413 163.058 22.1553C166.102 20.6693 168.805 19.0311 171.168 17.2407C173.532 15.4325 175.179 13.8838 176.11 12.5947C177.041 11.2878 177.506 10.3389 177.506 9.74805ZM148.637 30.3193C148.44 30.8027 148.341 31.2145 148.341 31.5547C148.341 31.877 148.44 32.244 148.637 32.6558L154.357 26.7207L154.276 26.6133L148.637 30.3193ZM148.368 32.9243C148.279 32.7095 148.216 32.5483 148.18 32.4409L147.992 31.5547C147.222 32.9691 145.781 35.019 143.668 37.7046L143.803 37.7852L148.368 32.9243ZM165.019 33.0049L164.831 32.8169L172.216 26.7744L175.358 24.3037H172.914L173.021 24.062H175.734L180.272 19.3086L182.555 19.2549L178.178 24.062H182.045L181.964 24.3037H177.909L168.644 34.1865C167.534 35.3682 166.863 36.1112 166.63 36.4155C166.415 36.7199 166.308 37.0063 166.308 37.2749C166.308 37.5435 166.415 37.7762 166.63 37.9731C166.863 38.1522 167.104 38.2417 167.355 38.2417C168.823 38.2417 171.634 36.4334 175.788 32.8169L175.976 33.0049C171.661 36.7109 168.769 38.564 167.301 38.564C166.836 38.564 166.433 38.376 166.093 38C165.771 37.6061 165.609 37.1496 165.609 36.6304C165.609 35.2876 166.505 33.6673 168.295 31.7695L173.773 26.0762L173.666 25.9956L165.019 33.0049ZM175.976 33.0049L175.788 32.8169L178.366 30.6953C179.762 29.5316 181.418 28.2873 183.334 26.9624C185.268 25.6375 186.252 24.9572 186.288 24.9214L193.7 17.3481C195.15 15.8621 196.565 14.5194 197.943 13.3198C199.34 12.1203 200.709 11.1087 202.052 10.2852C203.395 9.44368 204.424 8.90658 205.141 8.67383C205.875 8.44108 206.448 8.32471 206.859 8.32471C207.951 8.32471 208.498 8.84391 208.498 9.88232C208.498 11.2609 206.958 13.2035 203.878 15.71C200.799 18.2165 196.815 20.5887 191.928 22.8267C189.869 23.7756 188.705 24.3932 188.437 24.6797L185.563 27.8755C183.611 30.0418 181.633 32.3514 179.628 34.8042L179.87 34.8848C181.839 33.0049 183.925 31.2951 186.127 29.7554C188.329 28.1978 189.958 27.4189 191.015 27.4189C192.143 27.4189 192.707 27.9919 192.707 29.1377C192.707 29.8538 192.528 30.5521 192.169 31.2324C191.829 31.8949 191.059 32.7363 189.86 33.7568L188.222 35.1533C187.04 36.1559 186.449 36.89 186.449 37.3555C186.449 37.8031 186.718 38.0269 187.255 38.0269C188.866 38.0269 191.632 36.2902 195.553 32.8169L195.714 33.0049L193.62 34.7773C192.545 35.6904 191.391 36.505 190.155 37.2212C188.92 37.9373 187.962 38.2954 187.282 38.2954C186.816 38.2954 186.44 38.1164 186.154 37.7583C185.885 37.3823 185.751 36.9079 185.751 36.335C185.751 35.6904 185.957 35.0996 186.369 34.5625C186.78 34.0075 187.676 33.1392 189.054 31.9575C190.451 30.7759 191.301 29.9971 191.605 29.6211C191.928 29.2451 192.089 28.9049 192.089 28.6006C192.089 28.332 191.972 28.1172 191.74 27.9561C191.525 27.777 191.283 27.6875 191.015 27.6875C190.639 27.6875 190.003 27.8844 189.108 28.2783C188.213 28.6722 186.959 29.451 185.348 30.6147C183.737 31.7606 182.143 33.0944 180.568 34.6162C178.992 36.1201 177.766 37.248 176.889 38L174.23 38.0269L185.321 26.1299L185.214 25.9956C183.585 26.9266 180.505 29.263 175.976 33.0049ZM208.068 9.80176C208.068 9.0498 207.683 8.67383 206.913 8.67383C205.821 8.67383 204.451 9.23779 202.804 10.3657C201.157 11.4937 198.552 13.9196 194.989 17.6436C191.426 21.3496 189.645 23.3011 189.645 23.498C189.645 23.5339 190.827 23.0057 193.19 21.9136C194.586 21.2511 195.992 20.5171 197.406 19.7114C199.573 18.4582 201.39 17.2676 202.858 16.1396C204.326 14.9938 205.535 13.8569 206.483 12.729C207.217 11.8696 207.692 11.1445 207.907 10.5537C208.014 10.2852 208.068 10.0345 208.068 9.80176ZM206.43 32.8169L206.618 33.0049C204.469 34.9027 202.509 36.2812 200.736 37.1406C198.964 37.9821 197.549 38.4028 196.493 38.4028C195.025 38.4028 194.291 37.6509 194.291 36.147C194.291 34.1239 195.67 32.2171 198.427 30.4268C201.202 28.6364 203.368 27.7412 204.926 27.7412C205.212 27.7412 205.454 27.8218 205.651 27.9829C205.866 28.144 205.973 28.341 205.973 28.5737C205.973 29.451 205.105 30.373 203.368 31.3398C201.632 32.3066 199.707 32.9064 197.594 33.1392C195.768 34.9653 194.855 36.2186 194.855 36.8989C194.855 37.2212 195.016 37.5256 195.338 37.812C195.661 38.0806 196.037 38.2148 196.466 38.2148C197.397 38.2148 198.713 37.812 200.414 37.0063C202.133 36.1828 204.138 34.7863 206.43 32.8169ZM197.997 32.8169C198.534 32.8169 199.483 32.5841 200.844 32.1187C202.204 31.6532 203.332 31.0534 204.228 30.3193C205.141 29.5853 205.597 28.9766 205.597 28.4932C205.597 28.153 205.4 27.9829 205.006 27.9829C204.541 27.9829 204.022 28.1261 203.449 28.4126C202.894 28.6991 202.043 29.2899 200.897 30.1851C199.752 31.0623 198.785 31.9396 197.997 32.8169ZM273.81 5.90771C275.099 7.57275 275.744 9.33626 275.744 11.1982C275.744 13.472 274.884 15.4862 273.166 17.2407C271.447 18.9774 268.86 20.2754 265.404 21.1348C266.479 22.0837 267.016 23.6323 267.016 25.7808C267.016 28.0187 266.291 30.1582 264.84 32.1992C263.39 34.2402 261.483 35.7799 259.12 36.8184C256.757 37.8568 254.626 38.376 252.729 38.376C252.012 38.376 251.413 38.1969 250.929 37.8389C250.446 37.4629 250.204 37.0153 250.204 36.4961C250.204 34.9027 251.547 33.0854 254.232 31.0444C256.936 28.9855 259.559 27.8039 262.101 27.4995L262.128 27.6606C259.407 28.0903 256.775 29.3078 254.232 31.313C251.708 33.3003 250.446 35.0369 250.446 36.5229C250.446 37.0422 250.652 37.436 251.063 37.7046C251.475 37.9552 251.932 38.0806 252.433 38.0806C254.152 38.0806 256.148 37.2839 258.422 35.6904C260.714 34.097 262.611 32.1455 264.115 29.8359C265.637 27.5264 266.398 25.6554 266.398 24.2231C266.398 22.9162 265.941 21.9136 265.028 21.2153C264.115 21.3586 263.238 21.4302 262.396 21.4302C261.752 21.4302 261.269 21.3317 260.946 21.1348C260.642 20.9378 260.49 20.723 260.49 20.4902C260.49 19.9889 260.937 19.7383 261.833 19.7383C262.871 19.7383 263.963 20.1053 265.109 20.8394C267.042 20.4992 269.119 19.0311 271.339 16.4351C273.559 13.8211 274.669 11.3594 274.669 9.0498C274.669 7.92188 274.285 6.94613 273.515 6.12256C271.42 7.50114 269.137 9.47949 266.667 12.0576C264.196 14.6357 262.584 16.4261 261.833 17.4287L256.945 23.9814C255.459 25.9688 254.009 27.6696 252.594 29.084C251.18 30.4984 249.569 31.8232 247.76 33.0586C245.952 34.2939 244.072 35.3682 242.121 36.2812C240.169 37.1764 238.271 37.8389 236.427 38.2686C234.601 38.6982 232.838 38.9131 231.137 38.9131C228.541 38.9131 226.473 38.4924 224.933 37.6509C223.411 36.7915 222.65 35.6636 222.65 34.2671C222.65 33.7121 222.829 33.2376 223.188 32.8438C223.563 32.432 224.011 32.2261 224.53 32.2261C224.978 32.2261 225.354 32.3693 225.658 32.6558C225.963 32.9422 226.115 33.3182 226.115 33.7837C226.115 34.2134 225.963 34.5894 225.658 34.9116C225.372 35.216 225.032 35.3682 224.638 35.3682C224.28 35.3682 223.922 35.207 223.563 34.8848C223.456 34.9564 223.402 35.0459 223.402 35.1533C223.402 35.9948 224.065 36.7826 225.39 37.5166C226.715 38.2327 228.675 38.5908 231.271 38.5908C234.243 38.5908 236.991 38.0358 239.516 36.9258C242.04 35.8158 244.412 34.2223 246.632 32.1455C248.852 30.0687 251.977 26.7386 256.005 22.1553L258.61 19.2012C263.175 14.027 268.072 9.57796 273.3 5.854C272.029 4.31429 269.988 3.02523 267.177 1.98682C264.366 0.948405 261.125 0.429199 257.455 0.429199C252.639 0.429199 248.02 1.29753 243.598 3.03418C239.193 4.75293 235.675 7.08936 233.043 10.0435C230.412 12.9976 229.096 15.9338 229.096 18.8521C229.096 20.5887 229.866 22.0479 231.405 23.2295C232.963 24.4111 234.735 25.002 236.723 25.002C239.211 25.002 242.085 24.3216 245.343 22.9609C248.602 21.5824 251.287 19.8994 253.4 17.9121C255.513 15.9248 256.569 13.9285 256.569 11.9233C256.569 10.8491 256.059 9.96289 255.038 9.26465C254.035 8.5485 252.854 8.19043 251.493 8.19043C248.557 8.19043 245.424 9.33626 242.094 11.6279C238.764 13.9196 236.033 16.8826 233.903 20.5171L233.688 20.3828C235.675 16.9095 238.37 13.9644 241.771 11.5474C245.191 9.11247 248.414 7.89502 251.439 7.89502C252.872 7.89502 254.125 8.27995 255.199 9.0498C256.291 9.81966 256.837 10.7775 256.837 11.9233C256.837 14.9491 254.832 17.9569 250.822 20.9468C246.829 23.9367 242.586 25.4316 238.092 25.4316C235.156 25.4316 232.873 24.7961 231.244 23.5249C229.615 22.2537 228.8 20.7051 228.8 18.8789C228.8 15.7279 230.206 12.6305 233.017 9.58691C235.845 6.52539 239.489 4.18896 243.947 2.57764C248.405 0.966309 252.872 0.160645 257.348 0.160645C260.731 0.160645 263.847 0.617188 266.693 1.53027C269.54 2.44336 271.832 3.83984 273.568 5.71973C275.269 4.52018 277.462 3.16846 280.148 1.66455L280.229 1.87939C277.865 3.18636 275.726 4.52913 273.81 5.90771ZM264.679 20.9736C263.856 20.3112 262.862 19.98 261.698 19.98C261.072 19.98 260.758 20.159 260.758 20.5171C260.758 20.9468 261.358 21.1616 262.558 21.1616C263.256 21.1616 263.963 21.099 264.679 20.9736ZM278.349 32.8169L278.537 33.0049C276.388 34.9027 274.428 36.2812 272.655 37.1406C270.883 37.9821 269.468 38.4028 268.412 38.4028C266.944 38.4028 266.21 37.6509 266.21 36.147C266.21 34.1239 267.589 32.2171 270.346 30.4268C273.121 28.6364 275.287 27.7412 276.845 27.7412C277.131 27.7412 277.373 27.8218 277.57 27.9829C277.785 28.144 277.892 28.341 277.892 28.5737C277.892 29.451 277.024 30.373 275.287 31.3398C273.55 32.3066 271.626 32.9064 269.513 33.1392C267.687 34.9653 266.774 36.2186 266.774 36.8989C266.774 37.2212 266.935 37.5256 267.257 37.812C267.58 38.0806 267.956 38.2148 268.385 38.2148C269.316 38.2148 270.632 37.812 272.333 37.0063C274.052 36.1828 276.057 34.7863 278.349 32.8169ZM269.916 32.8169C270.453 32.8169 271.402 32.5841 272.763 32.1187C274.123 31.6532 275.251 31.0534 276.146 30.3193C277.06 29.5853 277.516 28.9766 277.516 28.4932C277.516 28.153 277.319 27.9829 276.925 27.9829C276.46 27.9829 275.941 28.1261 275.368 28.4126C274.813 28.6991 273.962 29.2899 272.816 30.1851C271.671 31.0623 270.704 31.9396 269.916 32.8169ZM292.099 27.5532H294.489L286.942 35.4219C286.208 36.1917 285.841 36.8094 285.841 37.2749C285.841 37.5793 285.94 37.812 286.137 37.9731C286.352 38.1164 286.566 38.188 286.781 38.188C287.211 38.188 287.9 37.8747 288.849 37.248C289.798 36.6035 291.624 35.1265 294.328 32.8169L294.516 33.0049C291.633 35.4398 289.717 36.9526 288.769 37.5435C287.838 38.1164 287.13 38.4028 286.647 38.4028C286.217 38.4028 285.877 38.2507 285.626 37.9463C285.394 37.624 285.277 37.248 285.277 36.8184C285.277 36.0664 285.644 35.1265 286.378 33.9985L286.271 33.918C282.637 36.9079 280.157 38.4028 278.832 38.4028C278.277 38.4028 277.838 38.179 277.516 37.7314C277.212 37.266 277.06 36.6662 277.06 35.9321C277.06 33.8911 278.492 31.9933 281.356 30.2388C284.239 28.4663 286.665 27.5801 288.634 27.5801C289.655 27.5801 290.165 28.0098 290.165 28.8691C290.165 29.0661 290.147 29.3167 290.111 29.6211L292.099 27.5532ZM289.816 28.8154C289.816 28.1709 289.404 27.8486 288.581 27.8486C287.095 27.8486 284.91 29.1466 282.028 31.7427C279.163 34.3208 277.731 36.138 277.731 37.1943C277.731 37.4271 277.829 37.6509 278.026 37.8657C278.223 38.0627 278.501 38.1611 278.859 38.1611C279.378 38.1611 280.229 37.8299 281.41 37.1675C282.61 36.505 284.078 35.4308 285.814 33.9448C287.551 32.4588 288.652 31.3846 289.118 30.7222C289.583 30.0418 289.816 29.4062 289.816 28.8154ZM294.516 33.0049L294.328 32.8169C296.369 31.1519 297.792 29.9613 298.598 29.2451C299.403 28.5111 300.102 27.9471 300.692 27.5532H303.244C302.742 28.0903 302.035 28.8065 301.122 29.7017L295.187 35.8516C294.722 36.335 294.435 36.7378 294.328 37.0601V37.248C294.328 37.4808 294.426 37.6956 294.623 37.8926C294.838 38.0716 295.089 38.1611 295.375 38.1611C296.163 38.1611 297.3 37.6688 298.786 36.6841C300.29 35.6815 301.659 34.5894 302.895 33.4077L306.305 30.2119C307.236 29.3525 308.212 28.4663 309.232 27.5532H311.891C309.474 29.8986 307.549 31.877 306.117 33.4883L304.345 35.4756C303.485 36.4424 303.056 37.0869 303.056 37.4092C303.056 37.9284 303.387 38.188 304.049 38.188C304.837 38.188 305.849 37.7583 307.084 36.8989C308.337 36.0216 310.02 34.661 312.133 32.8169L312.321 33.0049C309.241 35.6725 307.209 37.257 306.225 37.7583C305.258 38.2596 304.515 38.5103 303.996 38.5103C303.602 38.5103 303.253 38.3581 302.948 38.0537C302.662 37.7493 302.519 37.3376 302.519 36.8184C302.519 35.5114 303.458 33.918 305.338 32.0381L307.89 29.4062L307.755 29.2451C301.561 35.3503 297.416 38.4028 295.321 38.4028C294.91 38.4028 294.551 38.2507 294.247 37.9463C293.943 37.6419 293.791 37.2301 293.791 36.7109C293.791 35.5651 294.417 34.3477 295.67 33.0586L299.699 28.9229L299.511 28.8154C298.795 29.4779 297.13 30.8743 294.516 33.0049ZM312.348 33.0049L312.16 32.8169L319.545 26.7744L322.687 24.3037H320.243L320.351 24.062H323.063L327.602 19.3086L329.884 19.2549L325.507 24.062H329.374L329.293 24.3037H325.238L315.973 34.1865C314.863 35.3682 314.192 36.1112 313.959 36.4155C313.744 36.7199 313.637 37.0063 313.637 37.2749C313.637 37.5435 313.744 37.7762 313.959 37.9731C314.192 38.1522 314.433 38.2417 314.684 38.2417C316.152 38.2417 318.963 36.4334 323.117 32.8169L323.305 33.0049C318.99 36.7109 316.098 38.564 314.63 38.564C314.165 38.564 313.762 38.376 313.422 38C313.1 37.6061 312.938 37.1496 312.938 36.6304C312.938 35.2876 313.834 33.6673 315.624 31.7695L321.103 26.0762L320.995 25.9956L312.348 33.0049ZM336.491 22.2627C336.491 22.6566 336.33 22.9878 336.007 23.2563C335.685 23.5249 335.345 23.6592 334.987 23.6592C334.736 23.6592 334.521 23.5697 334.342 23.3906C334.163 23.1937 334.074 22.9609 334.074 22.6924C334.074 22.3522 334.226 22.0299 334.53 21.7256C334.835 21.4212 335.175 21.269 335.551 21.269C335.819 21.269 336.043 21.3675 336.222 21.5645C336.401 21.7614 336.491 21.9941 336.491 22.2627ZM323.305 33.0049L323.117 32.8169C323.994 32.0649 326.205 30.3104 329.75 27.5532H332.355L323.842 35.9321C323.52 36.2544 323.305 36.5767 323.197 36.8989V37.0869C323.197 37.3197 323.287 37.5256 323.466 37.7046C323.645 37.8836 323.869 37.9731 324.137 37.9731C324.71 37.9731 325.516 37.6867 326.554 37.1138C327.611 36.5229 329.446 35.0907 332.06 32.8169L332.248 33.0049C328.255 36.4961 325.561 38.2417 324.164 38.2417C323.716 38.2417 323.349 38.0985 323.063 37.812C322.794 37.5256 322.66 37.1406 322.66 36.6572C322.66 35.9769 322.884 35.2607 323.332 34.5088C323.797 33.7389 325.516 31.9217 328.488 29.0571L328.434 28.9229L325.963 30.8027L323.305 33.0049ZM332.274 33.0049L332.086 32.8169C333.035 31.9933 334.244 31.0802 335.712 30.0776C336.07 29.1466 336.473 28.3947 336.92 27.8218C337.386 27.2489 337.744 26.9624 337.995 26.9624C338.209 26.9624 338.317 27.0788 338.317 27.3115C338.317 27.5443 338.039 28.0724 337.484 28.896L342.292 25.8345C342.596 25.6375 343.151 25.1362 343.957 24.3306C347.501 20.7498 350.232 18.109 352.147 16.4082C354.081 14.6895 355.97 13.1497 357.814 11.7891C359.658 10.4105 360.992 9.54215 361.815 9.18408C362.639 8.80811 363.31 8.62012 363.83 8.62012C364.206 8.62012 364.528 8.73649 364.796 8.96924C365.083 9.18408 365.226 9.45264 365.226 9.7749C365.226 10.867 364.394 12.3083 362.729 14.0986C361.081 15.8711 358.423 17.8674 354.752 20.0874C351.082 22.3075 347.958 23.8382 345.38 24.6797L337.028 33.8374C337.637 34.3566 338.371 34.6162 339.23 34.6162C340.358 34.6162 341.611 34.0164 342.99 32.8169L343.178 33.0049C341.71 34.2939 340.385 34.9385 339.203 34.9385C338.272 34.9385 337.466 34.6699 336.786 34.1328L321.129 50.8638L318.498 50.8906L326.5 42.4849C328.774 40.0858 330.851 37.5256 332.731 34.8042C334.629 32.0828 335.578 30.6506 335.578 30.5073C334.754 31.0444 334.244 31.3846 334.047 31.5278C333.868 31.6532 333.716 31.7695 333.59 31.877L332.274 33.0049ZM364.85 9.74805C364.85 9.5332 364.743 9.34521 364.528 9.18408C364.313 9.02295 364.053 8.94238 363.749 8.94238C363.23 8.94238 362.469 9.18408 361.466 9.66748C360.482 10.1509 359.228 11.0192 357.707 12.2725C356.185 13.5257 353.83 15.8084 350.644 19.1206C347.457 22.4149 345.863 24.1247 345.863 24.25C345.863 24.3395 347.376 23.6413 350.402 22.1553C353.445 20.6693 356.149 19.0311 358.512 17.2407C360.875 15.4325 362.523 13.8838 363.454 12.5947C364.385 11.2878 364.85 10.3389 364.85 9.74805ZM335.98 30.3193C335.784 30.8027 335.685 31.2145 335.685 31.5547C335.685 31.877 335.784 32.244 335.98 32.6558L341.701 26.7207L341.62 26.6133L335.98 30.3193ZM335.712 32.9243C335.622 32.7095 335.56 32.5483 335.524 32.4409L335.336 31.5547C334.566 32.9691 333.125 35.019 331.012 37.7046L331.146 37.7852L335.712 32.9243ZM343.178 33.0049L342.99 32.8169C345.031 31.1519 346.454 29.9613 347.26 29.2451C348.065 28.5111 348.764 27.9471 349.354 27.5532H351.906C351.404 28.0903 350.697 28.8065 349.784 29.7017L343.849 35.8516C343.384 36.335 343.097 36.7378 342.99 37.0601V37.248C342.99 37.4808 343.088 37.6956 343.285 37.8926C343.5 38.0716 343.751 38.1611 344.037 38.1611C344.825 38.1611 345.962 37.6688 347.448 36.6841C348.952 35.6815 350.321 34.5894 351.557 33.4077L354.967 30.2119C355.898 29.3525 356.874 28.4663 357.895 27.5532H360.553C358.136 29.8986 356.212 31.877 354.779 33.4883L353.007 35.4756C352.147 36.4424 351.718 37.0869 351.718 37.4092C351.718 37.9284 352.049 38.188 352.711 38.188C353.499 38.188 354.511 37.7583 355.746 36.8989C356.999 36.0216 358.682 34.661 360.795 32.8169L360.983 33.0049C357.903 35.6725 355.871 37.257 354.887 37.7583C353.92 38.2596 353.177 38.5103 352.658 38.5103C352.264 38.5103 351.915 38.3581 351.61 38.0537C351.324 37.7493 351.181 37.3376 351.181 36.8184C351.181 35.5114 352.121 33.918 354 32.0381L356.552 29.4062L356.417 29.2451C350.223 35.3503 346.078 38.4028 343.983 38.4028C343.572 38.4028 343.214 38.2507 342.909 37.9463C342.605 37.6419 342.453 37.2301 342.453 36.7109C342.453 35.5651 343.079 34.3477 344.333 33.0586L348.361 28.9229L348.173 28.8154C347.457 29.4779 345.792 30.8743 343.178 33.0049ZM361.01 33.0049L360.822 32.8169C364.761 29.451 367.061 27.5264 367.724 27.043C368.404 26.5596 368.932 26.2284 369.308 26.0493C369.702 25.8703 370.033 25.6465 370.302 25.3779C373.345 22.1195 376.264 19.2191 379.057 16.6768C381.85 14.1344 384.231 12.165 386.2 10.7686C388.188 9.35417 389.844 8.64697 391.168 8.64697C391.652 8.64697 392.055 8.79915 392.377 9.10352C392.717 9.38997 392.887 9.71224 392.887 10.0703C392.887 11.1087 391.741 12.6574 389.45 14.7163C387.158 16.7573 384.32 18.7983 380.937 20.8394C377.553 22.8804 374.957 24.1605 373.148 24.6797C372.737 25.1631 371.976 26.0046 370.866 27.2041L368.717 29.5674L366.005 32.79C364.125 35.028 363.122 36.4513 362.997 37.0601V37.3018C362.997 37.8926 363.328 38.188 363.991 38.188C365.53 38.188 368.314 36.3976 372.343 32.8169L372.531 33.0049L370.893 34.4014C367.634 37.1764 365.271 38.564 363.803 38.564C363.355 38.564 362.961 38.3849 362.621 38.0269C362.299 37.6867 362.138 37.2749 362.138 36.7915C362.138 35.4666 363.167 33.5509 365.226 31.0444C367.285 28.5379 368.61 27.0877 369.201 26.6938L369.174 26.5327C368.529 26.8192 367.58 27.5085 366.327 28.6006L361.01 33.0049ZM373.524 24.2769C374.957 23.8114 377.383 22.576 380.802 20.5708C384.24 18.5477 387.051 16.5335 389.235 14.5283C391.419 12.5052 392.511 11.0192 392.511 10.0703C392.511 9.78385 392.377 9.5332 392.108 9.31836C391.84 9.08561 391.5 8.96924 391.088 8.96924C390.014 8.96924 388.707 9.48844 387.167 10.5269C385.645 11.5474 383.3 13.6958 380.131 16.9722C376.98 20.2485 374.778 22.6834 373.524 24.2769Z" fill="black"/>
</svg>
