<svg width="50" height="50" viewBox="0 0 50 50" fill="none" xmlns="http://www.w3.org/2000/svg">
<g clip-path="url(#clip0_27_22)">
<path d="M1.72719 29.2582H5.79988V45.5489C5.79988 46.5088 6.58532 47.2943 7.5453 47.2943H19.4724C20.4324 47.2943 21.2178 46.5088 21.2178 45.5489V33.6218H28.4904V45.5489C28.4904 46.5088 29.2758 47.2943 30.2358 47.2943H41.581C42.541 47.2943 43.3265 46.5088 43.3265 45.5489V29.2582H48.2719C48.97 29.2582 49.61 28.8218 49.8718 28.1819C50.1336 27.5419 49.9881 26.7856 49.4937 26.291L26.745 3.22235C26.0758 2.55324 24.9705 2.52418 24.3014 3.19329L0.534551 26.2619C0.0109245 26.7565 -0.134562 27.5128 0.127252 28.1819C0.389065 28.8509 1.02902 29.2582 1.72719 29.2582ZM25.4649 6.91679L44.0828 25.7674H41.5809C40.621 25.7674 39.8355 26.5528 39.8355 27.5128V43.8034H31.9811V31.8763C31.9811 30.9164 31.1957 30.1309 30.2357 30.1309H19.4724C18.5124 30.1309 17.727 30.9164 17.727 31.8763V43.8034H9.29072V27.5128C9.29072 26.5528 8.50528 25.7674 7.5453 25.7674H6.03263L25.4649 6.91679Z" fill="black"/>
</g>
<defs>
<clipPath id="clip0_27_22">
<rect width="50" height="50" fill="white"/>
</clipPath>
</defs>
</svg>
