<svg width="50" height="50" viewBox="0 0 50 50" fill="none" xmlns="http://www.w3.org/2000/svg">
<path d="M38.0273 44.2578C37.7716 44.2578 37.5203 44.1904 37.2988 44.0625L24.7461 36.8643L12.1934 44.0625C11.9707 44.1901 11.7184 44.257 11.4618 44.2565C11.2052 44.256 10.9532 44.188 10.731 44.0595C10.5089 43.9309 10.3245 43.7462 10.1962 43.524C10.0679 43.3017 10.0002 43.0496 10 42.793V6.46484C10 6.07634 10.1543 5.70375 10.429 5.42904C10.7038 5.15433 11.0763 5 11.4648 5H38.0273C38.4158 5 38.7884 5.15433 39.0631 5.42904C39.3379 5.70375 39.4922 6.07634 39.4922 6.46484V42.793C39.4922 43.1815 39.3379 43.5541 39.0631 43.8288C38.7884 44.1035 38.4158 44.2578 38.0273 44.2578ZM24.7461 33.7109C25.0019 33.711 25.2531 33.7783 25.4746 33.9062L36.5625 40.2637V7.92969H12.9297V40.2637L24.0176 33.9062C24.2391 33.7783 24.4903 33.711 24.7461 33.7109V33.7109Z" fill="#0085FF"/>
</svg>
