<svg width="50" height="44" viewBox="0 0 50 44" fill="none" xmlns="http://www.w3.org/2000/svg">
<path d="M6.25 12.5H43.75C47.2016 12.5 50 9.70155 50 6.25C50 2.79845 47.2016 0 43.75 0H6.25C2.79845 0 0 2.79845 0 6.25C0 9.70155 2.79845 12.5 6.25 12.5ZM6.25 3.125H43.75C45.4766 3.125 46.875 4.52345 46.875 6.25C46.875 7.97655 45.4766 9.375 43.75 9.375H6.25C4.52345 9.375 3.125 7.97655 3.125 6.25C3.125 4.52345 4.52345 3.125 6.25 3.125ZM43.75 31.25H6.25C2.79845 31.25 0 34.0485 0 37.5C0 40.9516 2.79845 43.75 6.25 43.75H43.75C47.2016 43.75 50 40.9516 50 37.5C50 34.0485 47.2016 31.25 43.75 31.25ZM43.75 40.625H6.25C4.52345 40.625 3.125 39.2266 3.125 37.5C3.125 35.7734 4.52345 34.375 6.25 34.375H43.75C45.4766 34.375 46.875 35.7734 46.875 37.5C46.875 39.2266 45.4766 40.625 43.75 40.625ZM43.75 15.625H6.25C2.79845 15.625 0 18.4234 0 21.875C0 25.3266 2.79845 28.125 6.25 28.125H43.75C47.2016 28.125 50 25.3266 50 21.875C50 18.4234 47.2016 15.625 43.75 15.625ZM43.75 25H6.25C4.52345 25 3.125 23.6016 3.125 21.875C3.125 20.15 4.52345 18.75 6.25 18.75H43.75C45.4766 18.75 46.875 20.1484 46.875 21.875C46.875 23.6016 45.4766 25 43.75 25Z" fill="black"/>
</svg>
