<svg width="50" height="50" viewBox="0 0 50 50" fill="none" xmlns="http://www.w3.org/2000/svg">
<path d="M45.3125 9.37498H4.6875H4.5625C4.45363 9.36019 4.34325 9.36019 4.23438 9.37498L3.96875 9.48436C3.88375 9.5253 3.80486 9.57789 3.73438 9.64061C3.64548 9.70106 3.56643 9.77484 3.5 9.85936L3.40625 9.95311C3.40037 9.9998 3.40037 10.047 3.40625 10.0937C3.35521 10.1885 3.31335 10.2879 3.28125 10.3906C3.21568 10.515 3.16331 10.6459 3.125 10.7812C3.125 10.7812 3.125 10.9375 3.125 10.9375V39.0625C3.125 39.4769 3.28962 39.8743 3.58265 40.1673C3.87567 40.4604 4.2731 40.625 4.6875 40.625H45.3125C45.7269 40.625 46.1243 40.4604 46.4174 40.1673C46.7104 39.8743 46.875 39.4769 46.875 39.0625V10.9375C46.875 10.5231 46.7104 10.1257 46.4174 9.83263C46.1243 9.53961 45.7269 9.37498 45.3125 9.37498ZM25 23.1406L9.6875 12.5H42.3281L25 23.1406ZM6.25 37.5V13.9219L24.1094 26.2812C24.1999 26.3343 24.2939 26.3813 24.3906 26.4219H24.5156C24.6692 26.4925 24.8325 26.5399 25 26.5625C25.2222 26.5566 25.4406 26.5033 25.6406 26.4062H25.75L43.75 15.2969V37.5H6.25Z" fill="#0085FF"/>
</svg>
