<svg width="50" height="50" viewBox="0 0 50 50" fill="none" xmlns="http://www.w3.org/2000/svg">
<g clip-path="url(#clip0_36_12)">
<path d="M3.5553 30.3652L5.88239 31.4318C6.852 31.8843 7.30453 32.9832 6.94897 33.9851L6.04403 36.3769C5.3653 38.2191 5.5915 40.1907 6.72276 41.7744C7.82162 43.3905 9.63161 44.3277 11.5708 44.3277C12.2819 44.3277 12.993 44.1985 13.6717 43.9399L16.0635 43.0349C16.2897 42.938 16.516 42.9057 16.7745 42.9057C17.5502 42.9057 18.2936 43.3582 18.6168 44.1015L19.6834 46.4286C20.653 48.5618 22.7215 49.8869 25.0485 49.8869C27.3756 49.8869 29.4441 48.5618 30.4137 46.4286L31.4803 44.1015C31.8035 43.3905 32.5146 42.9057 33.3226 42.9057C33.5488 42.9057 33.8074 42.938 34.0336 43.0349L36.4253 43.9723C37.1041 44.2309 37.8151 44.3924 38.5262 44.3924C40.4332 44.3924 42.2431 43.3905 43.3743 41.8067C44.4732 40.1907 44.7318 38.2191 44.053 36.3769L43.1481 33.9851C42.7925 32.9832 43.2451 31.8842 44.2147 31.4318L46.5418 30.3652C48.6749 29.3956 50.0001 27.3271 50.0001 25C50.0001 22.673 48.6748 20.6044 46.5417 19.6348L44.2146 18.5682C43.245 18.1156 42.7924 17.0168 43.148 16.0149L44.0529 13.6231C44.7317 11.7808 44.5055 9.80933 43.3742 8.22554C42.2753 6.60948 40.4653 5.67226 38.5261 5.67226C37.8151 5.67226 37.104 5.8015 36.4252 6.0601L34.0335 6.96504C33.8073 7.062 33.5809 7.09429 33.3225 7.09429C32.5468 7.09429 31.8034 6.64176 31.4802 5.89846L30.4136 3.57138C29.444 1.43822 27.3755 0.113037 25.0484 0.113037C22.7213 0.113037 20.5559 1.4705 19.5863 3.60366L18.5197 5.93074C18.1965 6.64176 17.4854 7.12657 16.6774 7.12657C16.4512 7.12657 16.1926 7.09429 15.9664 6.99732L13.5747 6.09239C12.8959 5.83378 12.1849 5.70454 11.4738 5.70454C9.56682 5.70454 7.75694 6.67416 6.62568 8.25783C5.52682 9.87389 5.26822 11.8454 5.94695 13.6554L6.85189 16.0472C7.20746 17.0491 6.75493 18.148 5.78531 18.6005L3.45823 19.667C1.32518 20.6367 0 22.7052 0 25.0323C0 27.3594 1.42214 29.3956 3.5553 30.3652ZM5.13897 23.1577L7.46606 22.0911C10.2779 20.7983 11.6354 17.5339 10.5366 14.6573L9.63161 12.2655C9.30845 11.3929 9.63161 10.7464 9.85782 10.4233C10.3749 9.64757 11.3445 9.32441 12.2496 9.67986L14.6413 10.5848C15.3201 10.8434 15.9988 10.9726 16.7098 10.9726C19.0046 10.9726 21.1054 9.61518 22.075 7.5143L23.1416 5.18722C23.6264 4.08836 24.6607 3.99139 24.9839 3.99139C25.307 3.99139 26.309 4.08836 26.8261 5.18722L27.8927 7.5143C28.8623 9.61518 30.9632 10.9726 33.2579 10.9726C33.9689 10.9726 34.6476 10.8434 35.3264 10.5848L37.7181 9.67986C38.6231 9.35669 39.5604 9.67986 40.1099 10.4233C40.3361 10.7464 40.6594 11.3929 40.3361 12.2655L39.4312 14.6573C38.3646 17.5339 39.6898 20.7982 42.5017 22.0911L44.8287 23.1577C45.9276 23.6425 46.0246 24.6768 46.0246 24.9999C46.0246 25.3231 45.9276 26.3251 44.8287 26.8422L42.5017 27.9088C39.6898 29.2016 38.3323 32.466 39.4312 35.3426L40.3361 37.7343C40.6593 38.607 40.3361 39.2534 40.1099 39.5766C39.5928 40.3523 38.6232 40.6755 37.7181 40.32L35.3264 39.4151C34.6476 39.1565 33.9689 39.0272 33.2579 39.0272C30.9631 39.0272 28.8623 40.3847 27.8927 42.4856L26.8261 44.8126C26.3413 45.9115 25.307 46.0085 24.9839 46.0085C24.6607 46.0085 23.6587 45.9115 23.1416 44.8126L22.075 42.4856C21.1054 40.3847 19.0045 39.0272 16.7098 39.0272C15.9988 39.0272 15.3201 39.1565 14.6413 39.4151L12.2496 40.32C11.3446 40.6432 10.4073 40.32 9.85782 39.5766C9.63161 39.2534 9.30833 38.607 9.63161 37.7343L10.5366 35.3426C11.6031 32.466 10.2779 29.2017 7.46606 27.9088L5.13897 26.8422C4.04011 26.3574 3.94315 25.3231 3.94315 24.9999C3.94315 24.6768 4.04011 23.6749 5.13897 23.1577Z" fill="#0085FF"/>
<path d="M24.9515 33.4033C29.5733 33.4033 33.3549 29.6218 33.3549 25C33.3549 20.3781 29.5733 16.5966 24.9515 16.5966C20.3296 16.5966 16.5481 20.3781 16.5481 25C16.5481 29.6218 20.2973 33.4033 24.9515 33.4033ZM24.9515 20.4751C27.4402 20.4751 29.4764 22.5113 29.4764 25.0001C29.4764 27.4888 27.4402 29.525 24.9515 29.525C22.4627 29.525 20.4265 27.4888 20.4265 25.0001C20.4265 22.5113 22.4628 20.4751 24.9515 20.4751Z" fill="#0085FF"/>
</g>
<defs>
<clipPath id="clip0_36_12">
<rect width="50" height="50" fill="white"/>
</clipPath>
</defs>
</svg>
