<svg width="40" height="40" viewBox="0 0 40 40" fill="none" xmlns="http://www.w3.org/2000/svg">
<path d="M20.0004 39.4105C16.1613 39.4105 12.4085 38.2721 9.21647 36.1393C6.02442 34.0064 3.53653 30.9749 2.06739 27.4281C0.598254 23.8813 0.213861 19.9785 0.96282 16.2132C1.71178 12.4479 3.56045 8.98931 6.27506 6.2747C8.98967 3.56009 12.4483 1.71141 16.2136 0.962454C19.9788 0.213495 23.8817 0.597888 27.4285 2.06702C30.9753 3.53616 34.0068 6.02406 36.1396 9.2161C38.2725 12.4081 39.4109 16.161 39.4109 20C39.4051 25.1462 37.3581 30.08 33.7192 33.7189C30.0803 37.3578 25.1466 39.4047 20.0004 39.4105ZM20.0004 3.22107C16.6818 3.22107 13.4378 4.20513 10.6785 6.04883C7.91921 7.89252 5.76861 10.513 4.49865 13.579C3.22869 16.6449 2.89641 20.0186 3.54383 23.2734C4.19125 26.5282 5.78929 29.5179 8.13587 31.8645C10.4824 34.2111 13.4722 35.8091 16.727 36.4566C19.9818 37.104 23.3555 36.7717 26.4214 35.5017C29.4874 34.2318 32.1079 32.0812 33.9516 29.3219C35.7953 26.5626 36.7793 23.3186 36.7793 20C36.7746 15.5514 35.0053 11.2864 31.8597 8.14074C28.714 4.9951 24.449 3.2258 20.0004 3.22107Z" fill="black"/>
<path d="M25.1637 15.1323L17.2888 23.0072C16.775 23.5211 16.775 24.3542 17.2888 24.868C17.8026 25.3819 18.6358 25.3819 19.1496 24.868L27.0245 16.9931C27.5384 16.4792 27.5384 15.6461 27.0245 15.1323C26.5107 14.6184 25.6776 14.6184 25.1637 15.1323Z" fill="black"/>
<path d="M12.9753 20.5759L17.2678 24.8684C17.7817 25.3823 18.6148 25.3823 19.1286 24.8684C19.6425 24.3546 19.6425 23.5215 19.1286 23.0076L14.8361 18.7151C14.3223 18.2013 13.4892 18.2013 12.9753 18.7151C12.4615 19.229 12.4615 20.0621 12.9753 20.5759Z" fill="black"/>
</svg>
