<svg width="124" height="52" viewBox="0 0 124 52" fill="none" xmlns="http://www.w3.org/2000/svg">
<path d="M40.9731 32.8169L41.1611 33.0049C37.9027 35.9411 33.7401 37.9821 28.6733 39.1279C26.3817 41.8672 24.7435 43.7023 23.7588 44.6333C22.7741 45.5643 21.3328 46.5848 19.4351 47.6948C17.5373 48.8049 15.6932 49.6374 13.9028 50.1924C12.1304 50.7653 10.3848 51.0518 8.66602 51.0518C7.28743 51.0518 6.28483 50.8459 5.6582 50.4341C5.04948 50.0223 4.74512 49.5031 4.74512 48.8765C4.74512 47.5516 5.70296 46.361 7.61865 45.3047C9.55225 44.2484 11.7992 43.3532 14.3594 42.6191L25.397 39.8799C27.5812 37.1227 29.7028 34.7952 31.7617 32.8975L38.1533 26.8013C33.4626 30.0776 29.4521 32.2619 26.1221 33.354C22.792 34.4461 20.0527 34.9922 17.9043 34.9922C16.2572 34.9922 14.8517 34.464 13.688 33.4077C12.5422 32.3335 11.9692 30.9281 11.9692 29.1914C11.9692 27.3652 12.4795 25.5391 13.5 23.7129C12.6227 23.7666 11.8618 23.7935 11.2173 23.7935C7.40381 23.7935 4.59294 23.0057 2.78467 21.4302C0.9764 19.8547 0.0722656 18.0195 0.0722656 15.9248C0.0722656 12.2008 2.02376 8.85286 5.92676 5.88086C9.84766 2.89095 16.3198 1.13639 25.3433 0.617188L25.3701 0.858887C23.6335 0.858887 21.1896 1.11849 18.0386 1.6377C14.8875 2.1569 12.0319 3.17741 9.47168 4.69922C6.92936 6.20312 4.85254 8.07406 3.24121 10.312C1.64779 12.55 0.851074 14.7163 0.851074 16.811C0.851074 18.6014 1.71045 20.1859 3.4292 21.5645C5.14795 22.9251 7.49333 23.6055 10.4653 23.6055C11.0562 23.6055 12.1393 23.5428 13.7148 23.4175C15.7917 19.783 19.0591 16.2381 23.5171 12.7827C27.993 9.30941 32.8807 6.5612 38.1802 4.53809C43.4976 2.49707 47.5975 1.47656 50.48 1.47656C51.5363 1.47656 52.4315 1.70036 53.1655 2.14795C53.8996 2.57764 54.2666 3.15951 54.2666 3.89355C54.2666 7.16992 49.6743 10.9834 40.4897 15.334C31.3231 19.6846 23.2127 22.397 16.1587 23.4712C14.1356 26.3895 13.124 28.8602 13.124 30.8833C13.124 32.047 13.6074 32.987 14.5742 33.7031C15.5589 34.4193 16.7137 34.7773 18.0386 34.7773C20.6704 34.7773 23.9557 33.9985 27.8945 32.4409C31.8333 30.8833 36.3451 28.0277 41.4297 23.874L41.6982 24.25C36.1481 28.9229 31.8691 33.7747 28.8613 38.8057C30.4906 38.4834 32.4868 37.7941 34.8501 36.7378C37.2313 35.6815 39.2723 34.3745 40.9731 32.8169ZM16.3467 23.2563C21.9863 22.2896 28.0646 20.4455 34.5815 17.7241C41.0985 15.0028 45.9414 12.4157 49.1104 9.96289C52.2972 7.49219 53.8906 5.42432 53.8906 3.75928C53.8906 3.18636 53.5594 2.71191 52.897 2.33594C52.2524 1.95996 51.402 1.77197 50.3457 1.77197C47.3379 1.77197 43.6497 2.78353 39.2812 4.80664C34.9307 6.82975 30.4727 9.70329 25.9072 13.4272C21.3418 17.1512 18.1549 20.4276 16.3467 23.2563ZM25.0747 40.2827C18.7547 41.6613 13.8491 43.0757 10.3579 44.5259C6.8667 45.994 5.12109 47.4889 5.12109 49.0107C5.12109 49.5479 5.40755 49.9775 5.98047 50.2998C6.57129 50.6221 7.41276 50.7832 8.50488 50.7832C11.0293 50.7832 13.5448 50.1029 16.0513 48.7422C18.5578 47.3815 21.5656 44.5617 25.0747 40.2827ZM54.75 27.5532H57.1401L49.5938 35.4219C48.8597 36.1917 48.4927 36.8094 48.4927 37.2749C48.4927 37.5793 48.5911 37.812 48.7881 37.9731C49.0029 38.1164 49.2178 38.188 49.4326 38.188C49.8623 38.188 50.5516 37.8747 51.5005 37.248C52.4494 36.6035 54.2756 35.1265 56.979 32.8169L57.167 33.0049C54.2845 35.4398 52.3688 36.9526 51.4199 37.5435C50.4889 38.1164 49.7817 38.4028 49.2983 38.4028C48.8687 38.4028 48.5285 38.2507 48.2778 37.9463C48.0451 37.624 47.9287 37.248 47.9287 36.8184C47.9287 36.0664 48.2957 35.1265 49.0298 33.9985L48.9224 33.918C45.2879 36.9079 42.8083 38.4028 41.4834 38.4028C40.9284 38.4028 40.4897 38.179 40.1675 37.7314C39.8631 37.266 39.7109 36.6662 39.7109 35.9321C39.7109 33.8911 41.1432 31.9933 44.0078 30.2388C46.8903 28.4663 49.3162 27.5801 51.2856 27.5801C52.3062 27.5801 52.8164 28.0098 52.8164 28.8691C52.8164 29.0661 52.7985 29.3167 52.7627 29.6211L54.75 27.5532ZM52.4673 28.8154C52.4673 28.1709 52.0555 27.8486 51.2319 27.8486C49.7459 27.8486 47.5617 29.1466 44.6792 31.7427C41.8146 34.3208 40.3823 36.138 40.3823 37.1943C40.3823 37.4271 40.4808 37.6509 40.6777 37.8657C40.8747 38.0627 41.1522 38.1611 41.5103 38.1611C42.0295 38.1611 42.8799 37.8299 44.0615 37.1675C45.2611 36.505 46.7292 35.4308 48.4658 33.9448C50.2025 32.4588 51.3035 31.3846 51.769 30.7222C52.2345 30.0418 52.4673 29.4062 52.4673 28.8154ZM57.167 33.0049L56.979 32.8169C60.9178 29.451 63.2184 27.5264 63.8809 27.043C64.5612 26.5596 65.0894 26.2284 65.4653 26.0493C65.8592 25.8703 66.1904 25.6465 66.459 25.3779C69.5026 22.1195 72.4209 19.2191 75.2139 16.6768C78.0068 14.1344 80.388 12.165 82.3574 10.7686C84.3447 9.35417 86.0008 8.64697 87.3257 8.64697C87.8091 8.64697 88.2119 8.79915 88.5342 9.10352C88.8743 9.38997 89.0444 9.71224 89.0444 10.0703C89.0444 11.1087 87.8986 12.6574 85.6069 14.7163C83.3153 16.7573 80.4775 18.7983 77.0938 20.8394C73.71 22.8804 71.1139 24.1605 69.3057 24.6797C68.8939 25.1631 68.133 26.0046 67.0229 27.2041L64.8745 29.5674L62.1621 32.79C60.2822 35.028 59.2796 36.4513 59.1543 37.0601V37.3018C59.1543 37.8926 59.4855 38.188 60.1479 38.188C61.6877 38.188 64.4717 36.3976 68.5 32.8169L68.688 33.0049L67.0498 34.4014C63.7913 37.1764 61.4281 38.564 59.96 38.564C59.5124 38.564 59.1185 38.3849 58.7783 38.0269C58.4561 37.6867 58.2949 37.2749 58.2949 36.7915C58.2949 35.4666 59.3244 33.5509 61.3833 31.0444C63.4422 28.5379 64.7671 27.0877 65.3579 26.6938L65.3311 26.5327C64.6865 26.8192 63.7376 27.5085 62.4844 28.6006L57.167 33.0049ZM69.6816 24.2769C71.1139 23.8114 73.5399 22.576 76.9595 20.5708C80.397 18.5477 83.2078 16.5335 85.3921 14.5283C87.5763 12.5052 88.6685 11.0192 88.6685 10.0703C88.6685 9.78385 88.5342 9.5332 88.2656 9.31836C87.9971 9.08561 87.6569 8.96924 87.2451 8.96924C86.1709 8.96924 84.8639 9.48844 83.3242 10.5269C81.8024 11.5474 79.457 13.6958 76.2881 16.9722C73.137 20.2485 70.9349 22.6834 69.6816 24.2769ZM68.7148 33.0049L68.5269 32.8169C72.4657 29.451 74.7663 27.5264 75.4287 27.043C76.109 26.5596 76.6372 26.2284 77.0132 26.0493C77.4071 25.8703 77.7383 25.6465 78.0068 25.3779C81.0505 22.1195 83.9688 19.2191 86.7617 16.6768C89.5547 14.1344 91.9359 12.165 93.9053 10.7686C95.8926 9.35417 97.5487 8.64697 98.8735 8.64697C99.3569 8.64697 99.7598 8.79915 100.082 9.10352C100.422 9.38997 100.592 9.71224 100.592 10.0703C100.592 11.1087 99.4465 12.6574 97.1548 14.7163C94.8631 16.7573 92.0254 18.7983 88.6416 20.8394C85.2578 22.8804 82.6618 24.1605 80.8535 24.6797C80.4417 25.1631 79.6808 26.0046 78.5708 27.2041L76.4224 29.5674L73.71 32.79C71.8301 35.028 70.8275 36.4513 70.7021 37.0601V37.3018C70.7021 37.8926 71.0334 38.188 71.6958 38.188C73.2355 38.188 76.0195 36.3976 80.0479 32.8169L80.2358 33.0049L78.5977 34.4014C75.3392 37.1764 72.9759 38.564 71.5078 38.564C71.0602 38.564 70.6663 38.3849 70.3262 38.0269C70.0039 37.6867 69.8428 37.2749 69.8428 36.7915C69.8428 35.4666 70.8722 33.5509 72.9312 31.0444C74.9901 28.5379 76.3149 27.0877 76.9058 26.6938L76.8789 26.5327C76.2344 26.8192 75.2855 27.5085 74.0322 28.6006L68.7148 33.0049ZM81.2295 24.2769C82.6618 23.8114 85.0877 22.576 88.5073 20.5708C91.9448 18.5477 94.7557 16.5335 96.9399 14.5283C99.1242 12.5052 100.216 11.0192 100.216 10.0703C100.216 9.78385 100.082 9.5332 99.8135 9.31836C99.5449 9.08561 99.2048 8.96924 98.793 8.96924C97.7188 8.96924 96.4118 9.48844 94.8721 10.5269C93.3503 11.5474 91.0049 13.6958 87.8359 16.9722C84.6849 20.2485 82.4827 22.6834 81.2295 24.2769ZM90.9512 32.8169L91.1392 33.0049C88.9907 34.9027 87.0303 36.2812 85.2578 37.1406C83.4854 37.9821 82.071 38.4028 81.0146 38.4028C79.5465 38.4028 78.8125 37.6509 78.8125 36.147C78.8125 34.1239 80.1911 32.2171 82.9482 30.4268C85.7233 28.6364 87.8896 27.7412 89.4473 27.7412C89.7337 27.7412 89.9754 27.8218 90.1724 27.9829C90.3872 28.144 90.4946 28.341 90.4946 28.5737C90.4946 29.451 89.6263 30.373 87.8896 31.3398C86.153 32.3066 84.2284 32.9064 82.1157 33.1392C80.2896 34.9653 79.3765 36.2186 79.3765 36.8989C79.3765 37.2212 79.5376 37.5256 79.8599 37.812C80.1821 38.0806 80.5581 38.2148 80.9878 38.2148C81.9188 38.2148 83.2347 37.812 84.9355 37.0063C86.6543 36.1828 88.6595 34.7863 90.9512 32.8169ZM82.5186 32.8169C83.0557 32.8169 84.0046 32.5841 85.3652 32.1187C86.7259 31.6532 87.8538 31.0534 88.749 30.3193C89.6621 29.5853 90.1187 28.9766 90.1187 28.4932C90.1187 28.153 89.9217 27.9829 89.5278 27.9829C89.0623 27.9829 88.5431 28.1261 87.9702 28.4126C87.4152 28.6991 86.5648 29.2899 85.4189 30.1851C84.2731 31.0623 83.3063 31.9396 82.5186 32.8169ZM91.1123 33.0049L90.9243 32.8169L95.0063 29.46C95.6509 28.9408 96.1074 28.5379 96.376 28.2515C95.8031 27.9113 95.5166 27.4458 95.5166 26.855C95.5166 26.479 95.6419 26.1478 95.8926 25.8613C96.1611 25.5749 96.4565 25.4316 96.7788 25.4316C97.0116 25.4316 97.2174 25.5301 97.3965 25.7271C97.5934 25.924 97.6919 26.1657 97.6919 26.4521C97.6919 26.7386 97.5934 26.9893 97.3965 27.2041C97.1995 27.401 96.9578 27.4995 96.6714 27.4995C96.4744 27.4995 96.2686 27.4279 96.0537 27.2847C96.0358 27.3563 96.0269 27.401 96.0269 27.4189C96.0269 27.5801 96.1522 27.7412 96.4028 27.9023C96.6535 28.0635 97.0205 28.144 97.5039 28.144C98.2021 28.144 98.9541 27.965 99.7598 27.6069L101.183 29.1914C100.843 29.8538 100.136 30.6774 99.0615 31.6621C98.0052 32.6289 96.9489 33.6673 95.8926 34.7773C94.8363 35.8695 94.2365 36.5229 94.0933 36.7378C93.95 36.9526 93.8784 37.1585 93.8784 37.3555C93.8784 37.8568 94.1649 38.1074 94.7378 38.1074C95.4181 38.1074 96.4744 37.7135 97.9067 36.9258C99.339 36.1201 101.165 34.7505 103.385 32.8169L103.573 33.0049C99.4017 36.6035 96.4386 38.4028 94.6841 38.4028C94.1649 38.4028 93.7531 38.2417 93.4487 37.9194C93.1623 37.5793 93.019 37.1406 93.019 36.6035C93.019 35.9232 93.2339 35.2428 93.6636 34.5625C94.1112 33.8822 95.0601 32.8348 96.5103 31.4204C97.9604 30.006 98.9631 28.9497 99.5181 28.2515L99.4106 28.0635C98.6587 28.332 97.9604 28.4663 97.3159 28.4663C97.1369 28.4663 96.9489 28.4395 96.752 28.3857L91.1123 33.0049ZM103.573 33.0049L103.385 32.8169L105.91 30.6953C106.769 29.9613 107.79 29.2541 108.971 28.5737C110.171 27.8755 111.111 27.5264 111.791 27.5264C112.203 27.5264 112.534 27.6696 112.785 27.9561C113.035 28.2246 113.161 28.5469 113.161 28.9229C113.161 29.6748 112.892 30.391 112.355 31.0713C111.818 31.7516 110.296 33.1929 107.79 35.395C106.859 36.2365 106.393 36.8721 106.393 37.3018C106.393 37.7673 106.653 38 107.172 38C107.924 38 108.953 37.5882 110.26 36.7646C111.567 35.9232 113.886 34.0075 117.216 31.0176L119.794 28.708C119.973 28.5469 120.313 28.1619 120.814 27.5532H123.419L112.006 39.5576C115.748 38.5908 119.633 36.3439 123.661 32.8169L123.849 33.0049C119.391 36.8363 115.264 39.1727 111.469 40.0142L108.595 42.9951C106.948 44.7139 104.997 46.4237 102.741 48.1245C100.485 49.8254 98.5423 50.6758 96.9131 50.6758C95.8389 50.6758 95.3018 50.2998 95.3018 49.5479C95.3018 48.4736 96.4924 47.0861 98.8735 45.3853C101.255 43.7023 104.531 42.2074 108.703 40.9004L119.633 29.4868L119.499 29.3525C118.997 29.7822 118.317 30.391 117.458 31.1787L114.987 33.4614C114.378 34.0164 113.358 34.8221 111.925 35.8784C110.493 36.9168 109.428 37.5882 108.729 37.8926C108.049 38.179 107.458 38.3223 106.957 38.3223C106.635 38.3223 106.304 38.2059 105.963 37.9731C105.641 37.7404 105.48 37.3734 105.48 36.8721C105.48 35.4577 106.393 33.9806 108.219 32.4409C110.045 30.9012 111.173 29.8896 111.603 29.4062C112.033 28.9229 112.248 28.5469 112.248 28.2783C112.248 27.974 112.033 27.8218 111.603 27.8218C111.138 27.8218 110.368 28.1172 109.293 28.708C108.237 29.2988 106.993 30.1851 105.561 31.3667L103.573 33.0049ZM108.192 41.5449C105.167 42.2432 102.32 43.4875 99.6523 45.2778C96.9668 47.0861 95.624 48.5184 95.624 49.5747C95.624 50.1118 96.0537 50.3804 96.9131 50.3804C98.0947 50.3804 99.2674 49.9865 100.431 49.1987C101.595 48.4289 103.421 46.7101 105.91 44.0425L108.192 41.5449Z" fill="black"/>
</svg>
